<mxfile host="app.diagrams.net" agent="Mozilla/5.0 (Macintosh; Intel Mac OS X 10_15_7) AppleWebKit/537.36 (KHTML, like Gecko) Chrome/131.0.0.0 Safari/537.36" version="24.9.2" pages="2">
  <diagram name="第 1 页" id="EhYSBg_LEtbygDCA7ADz">
    <mxGraphModel dx="954" dy="639" grid="1" gridSize="10" guides="1" tooltips="1" connect="1" arrows="1" fold="1" page="1" pageScale="1" pageWidth="827" pageHeight="1169" math="0" shadow="0">
      <root>
        <mxCell id="0" />
        <mxCell id="1" parent="0" />
        <mxCell id="kUtJMo36DLGsIh40E-pY-15" style="rounded=0;orthogonalLoop=1;jettySize=auto;html=1;exitX=1;exitY=1;exitDx=0;exitDy=0;entryX=0.5;entryY=0;entryDx=0;entryDy=0;" edge="1" parent="1" source="kUtJMo36DLGsIh40E-pY-1" target="kUtJMo36DLGsIh40E-pY-2">
          <mxGeometry relative="1" as="geometry" />
        </mxCell>
        <mxCell id="kUtJMo36DLGsIh40E-pY-1" value="&lt;font style=&quot;font-size: 13px;&quot;&gt;自研&lt;/font&gt;&lt;div&gt;&lt;font style=&quot;font-size: 13px;&quot;&gt;短视频&lt;/font&gt;&lt;/div&gt;" style="ellipse;whiteSpace=wrap;html=1;fillColor=#e1d5e7;strokeColor=#9673a6;" vertex="1" parent="1">
          <mxGeometry x="70" y="140" width="75" height="50" as="geometry" />
        </mxCell>
        <mxCell id="kUtJMo36DLGsIh40E-pY-18" style="edgeStyle=orthogonalEdgeStyle;rounded=0;orthogonalLoop=1;jettySize=auto;html=1;exitX=0.5;exitY=1;exitDx=0;exitDy=0;entryX=0.5;entryY=0;entryDx=0;entryDy=0;" edge="1" parent="1" source="kUtJMo36DLGsIh40E-pY-2" target="kUtJMo36DLGsIh40E-pY-5">
          <mxGeometry relative="1" as="geometry" />
        </mxCell>
        <mxCell id="kUtJMo36DLGsIh40E-pY-2" value="&lt;font style=&quot;font-size: 15px;&quot;&gt;获取视频url&lt;/font&gt;" style="rounded=0;whiteSpace=wrap;html=1;fillColor=#f8cecc;strokeColor=#b85450;" vertex="1" parent="1">
          <mxGeometry x="145" y="230" width="105" height="40" as="geometry" />
        </mxCell>
        <mxCell id="kUtJMo36DLGsIh40E-pY-16" style="edgeStyle=orthogonalEdgeStyle;rounded=0;orthogonalLoop=1;jettySize=auto;html=1;exitX=0.5;exitY=1;exitDx=0;exitDy=0;entryX=0.5;entryY=0;entryDx=0;entryDy=0;" edge="1" parent="1" source="kUtJMo36DLGsIh40E-pY-3" target="kUtJMo36DLGsIh40E-pY-2">
          <mxGeometry relative="1" as="geometry" />
        </mxCell>
        <mxCell id="kUtJMo36DLGsIh40E-pY-3" value="&lt;font style=&quot;font-size: 13px;&quot;&gt;normandy&lt;/font&gt;&lt;div&gt;&lt;font style=&quot;font-size: 13px;&quot;&gt;短视频&lt;/font&gt;&lt;/div&gt;" style="ellipse;whiteSpace=wrap;html=1;fillColor=#e1d5e7;strokeColor=#9673a6;" vertex="1" parent="1">
          <mxGeometry x="160" y="140" width="75" height="50" as="geometry" />
        </mxCell>
        <mxCell id="kUtJMo36DLGsIh40E-pY-17" style="rounded=0;orthogonalLoop=1;jettySize=auto;html=1;exitX=0;exitY=1;exitDx=0;exitDy=0;entryX=0.5;entryY=0;entryDx=0;entryDy=0;" edge="1" parent="1" source="kUtJMo36DLGsIh40E-pY-4" target="kUtJMo36DLGsIh40E-pY-2">
          <mxGeometry relative="1" as="geometry" />
        </mxCell>
        <mxCell id="kUtJMo36DLGsIh40E-pY-4" value="&lt;font style=&quot;font-size: 13px;&quot;&gt;回溯&lt;/font&gt;" style="ellipse;whiteSpace=wrap;html=1;fillColor=#e1d5e7;strokeColor=#9673a6;" vertex="1" parent="1">
          <mxGeometry x="260" y="140" width="75" height="50" as="geometry" />
        </mxCell>
        <mxCell id="kUtJMo36DLGsIh40E-pY-19" style="edgeStyle=orthogonalEdgeStyle;rounded=0;orthogonalLoop=1;jettySize=auto;html=1;exitX=0.5;exitY=1;exitDx=0;exitDy=0;entryX=0.5;entryY=0;entryDx=0;entryDy=0;" edge="1" parent="1" source="kUtJMo36DLGsIh40E-pY-5" target="kUtJMo36DLGsIh40E-pY-6">
          <mxGeometry relative="1" as="geometry" />
        </mxCell>
        <mxCell id="kUtJMo36DLGsIh40E-pY-5" value="&lt;font style=&quot;font-size: 15px;&quot;&gt;视频缓存&lt;/font&gt;" style="rounded=0;whiteSpace=wrap;html=1;fillColor=#f8cecc;strokeColor=#b85450;" vertex="1" parent="1">
          <mxGeometry x="145" y="300" width="105" height="40" as="geometry" />
        </mxCell>
        <mxCell id="kUtJMo36DLGsIh40E-pY-20" style="edgeStyle=orthogonalEdgeStyle;rounded=0;orthogonalLoop=1;jettySize=auto;html=1;exitX=0.5;exitY=1;exitDx=0;exitDy=0;entryX=0.5;entryY=0;entryDx=0;entryDy=0;" edge="1" parent="1" source="kUtJMo36DLGsIh40E-pY-6" target="kUtJMo36DLGsIh40E-pY-7">
          <mxGeometry relative="1" as="geometry" />
        </mxCell>
        <mxCell id="kUtJMo36DLGsIh40E-pY-6" value="&lt;font style=&quot;font-size: 15px;&quot;&gt;视频抽帧&lt;/font&gt;" style="rounded=0;whiteSpace=wrap;html=1;fillColor=#f8cecc;strokeColor=#b85450;" vertex="1" parent="1">
          <mxGeometry x="145" y="370" width="105" height="40" as="geometry" />
        </mxCell>
        <mxCell id="kUtJMo36DLGsIh40E-pY-21" style="edgeStyle=orthogonalEdgeStyle;rounded=0;orthogonalLoop=1;jettySize=auto;html=1;exitX=0.5;exitY=1;exitDx=0;exitDy=0;entryX=0.5;entryY=0;entryDx=0;entryDy=0;" edge="1" parent="1" source="kUtJMo36DLGsIh40E-pY-7" target="kUtJMo36DLGsIh40E-pY-8">
          <mxGeometry relative="1" as="geometry" />
        </mxCell>
        <mxCell id="kUtJMo36DLGsIh40E-pY-7" value="&lt;span style=&quot;font-size: 15px;&quot;&gt;...&lt;/span&gt;" style="rounded=0;whiteSpace=wrap;html=1;fillColor=#f8cecc;strokeColor=#b85450;" vertex="1" parent="1">
          <mxGeometry x="145" y="440" width="105" height="40" as="geometry" />
        </mxCell>
        <mxCell id="kUtJMo36DLGsIh40E-pY-22" style="rounded=0;orthogonalLoop=1;jettySize=auto;html=1;exitX=0.5;exitY=1;exitDx=0;exitDy=0;entryX=1;entryY=0;entryDx=0;entryDy=0;" edge="1" parent="1" source="kUtJMo36DLGsIh40E-pY-8" target="kUtJMo36DLGsIh40E-pY-12">
          <mxGeometry relative="1" as="geometry" />
        </mxCell>
        <mxCell id="kUtJMo36DLGsIh40E-pY-23" style="edgeStyle=orthogonalEdgeStyle;rounded=0;orthogonalLoop=1;jettySize=auto;html=1;exitX=0.5;exitY=1;exitDx=0;exitDy=0;entryX=0.5;entryY=0;entryDx=0;entryDy=0;" edge="1" parent="1" source="kUtJMo36DLGsIh40E-pY-8" target="kUtJMo36DLGsIh40E-pY-13">
          <mxGeometry relative="1" as="geometry" />
        </mxCell>
        <mxCell id="kUtJMo36DLGsIh40E-pY-24" style="rounded=0;orthogonalLoop=1;jettySize=auto;html=1;exitX=0.5;exitY=1;exitDx=0;exitDy=0;entryX=0;entryY=0;entryDx=0;entryDy=0;" edge="1" parent="1" source="kUtJMo36DLGsIh40E-pY-8" target="kUtJMo36DLGsIh40E-pY-14">
          <mxGeometry relative="1" as="geometry" />
        </mxCell>
        <mxCell id="kUtJMo36DLGsIh40E-pY-8" value="&lt;span style=&quot;font-size: 15px;&quot;&gt;封面画风&lt;/span&gt;" style="rounded=0;whiteSpace=wrap;html=1;fillColor=#f8cecc;strokeColor=#b85450;" vertex="1" parent="1">
          <mxGeometry x="145" y="500" width="105" height="40" as="geometry" />
        </mxCell>
        <mxCell id="kUtJMo36DLGsIh40E-pY-12" value="&lt;span style=&quot;font-size: 13px;&quot;&gt;写&lt;/span&gt;&lt;span style=&quot;font-size: 13px; background-color: initial;&quot;&gt;正排&lt;/span&gt;" style="ellipse;whiteSpace=wrap;html=1;fillColor=#fff2cc;strokeColor=#d6b656;" vertex="1" parent="1">
          <mxGeometry x="60" y="585" width="75" height="50" as="geometry" />
        </mxCell>
        <mxCell id="kUtJMo36DLGsIh40E-pY-13" value="&lt;span style=&quot;font-size: 13px;&quot;&gt;写hbase&lt;/span&gt;" style="ellipse;whiteSpace=wrap;html=1;fillColor=#fff2cc;strokeColor=#d6b656;" vertex="1" parent="1">
          <mxGeometry x="160.5" y="585" width="75" height="50" as="geometry" />
        </mxCell>
        <mxCell id="kUtJMo36DLGsIh40E-pY-14" value="&lt;span style=&quot;font-size: 13px;&quot;&gt;写kafka&lt;/span&gt;" style="ellipse;whiteSpace=wrap;html=1;fillColor=#fff2cc;strokeColor=#d6b656;" vertex="1" parent="1">
          <mxGeometry x="260" y="585" width="75" height="50" as="geometry" />
        </mxCell>
        <mxCell id="kUtJMo36DLGsIh40E-pY-25" value="" style="strokeWidth=2;html=1;shape=mxgraph.flowchart.annotation_2;align=left;labelPosition=right;pointerEvents=1;direction=west;" vertex="1" parent="1">
          <mxGeometry x="270" y="230" width="30" height="310" as="geometry" />
        </mxCell>
        <mxCell id="kUtJMo36DLGsIh40E-pY-26" value="&lt;font style=&quot;font-size: 13px;&quot;&gt;&lt;b&gt;60+个&lt;/b&gt;&lt;/font&gt;&lt;div&gt;&lt;font style=&quot;font-size: 13px;&quot;&gt;&lt;b&gt;算子服务&lt;/b&gt;&lt;/font&gt;&lt;/div&gt;" style="text;html=1;align=center;verticalAlign=middle;whiteSpace=wrap;rounded=0;" vertex="1" parent="1">
          <mxGeometry x="299" y="374" width="60" height="30" as="geometry" />
        </mxCell>
      </root>
    </mxGraphModel>
  </diagram>
  <diagram id="_0PKB9vZyUuw9XcX7CB6" name="第 2 页">
    <mxGraphModel dx="954" dy="639" grid="1" gridSize="10" guides="1" tooltips="1" connect="1" arrows="1" fold="1" page="1" pageScale="1" pageWidth="827" pageHeight="1169" math="0" shadow="0">
      <root>
        <mxCell id="0" />
        <mxCell id="1" parent="0" />
        <mxCell id="XR2TIhq63pXWGKetBBpU-1" style="rounded=0;orthogonalLoop=1;jettySize=auto;html=1;exitX=1;exitY=1;exitDx=0;exitDy=0;entryX=0.5;entryY=0;entryDx=0;entryDy=0;" edge="1" parent="1" source="XR2TIhq63pXWGKetBBpU-2" target="XR2TIhq63pXWGKetBBpU-24">
          <mxGeometry relative="1" as="geometry">
            <mxPoint x="197.5" y="230" as="targetPoint" />
          </mxGeometry>
        </mxCell>
        <mxCell id="XR2TIhq63pXWGKetBBpU-2" value="&lt;font style=&quot;font-size: 13px;&quot;&gt;自研&lt;/font&gt;&lt;div&gt;&lt;font style=&quot;font-size: 13px;&quot;&gt;短视频&lt;/font&gt;&lt;/div&gt;" style="ellipse;whiteSpace=wrap;html=1;fillColor=#e1d5e7;strokeColor=#9673a6;" vertex="1" parent="1">
          <mxGeometry x="70" y="140" width="75" height="50" as="geometry" />
        </mxCell>
        <mxCell id="XR2TIhq63pXWGKetBBpU-5" style="edgeStyle=orthogonalEdgeStyle;rounded=0;orthogonalLoop=1;jettySize=auto;html=1;exitX=0.5;exitY=1;exitDx=0;exitDy=0;entryX=0.5;entryY=0;entryDx=0;entryDy=0;" edge="1" parent="1" source="XR2TIhq63pXWGKetBBpU-6" target="XR2TIhq63pXWGKetBBpU-24">
          <mxGeometry relative="1" as="geometry">
            <mxPoint x="197.5" y="230" as="targetPoint" />
          </mxGeometry>
        </mxCell>
        <mxCell id="XR2TIhq63pXWGKetBBpU-6" value="&lt;font style=&quot;font-size: 13px;&quot;&gt;normandy&lt;/font&gt;&lt;div&gt;&lt;font style=&quot;font-size: 13px;&quot;&gt;短视频&lt;/font&gt;&lt;/div&gt;" style="ellipse;whiteSpace=wrap;html=1;fillColor=#e1d5e7;strokeColor=#9673a6;" vertex="1" parent="1">
          <mxGeometry x="160" y="140" width="75" height="50" as="geometry" />
        </mxCell>
        <mxCell id="XR2TIhq63pXWGKetBBpU-7" style="rounded=0;orthogonalLoop=1;jettySize=auto;html=1;exitX=0;exitY=1;exitDx=0;exitDy=0;entryX=0.5;entryY=0;entryDx=0;entryDy=0;" edge="1" parent="1" source="XR2TIhq63pXWGKetBBpU-8" target="XR2TIhq63pXWGKetBBpU-24">
          <mxGeometry relative="1" as="geometry">
            <mxPoint x="197.5" y="230" as="targetPoint" />
          </mxGeometry>
        </mxCell>
        <mxCell id="XR2TIhq63pXWGKetBBpU-8" value="&lt;font style=&quot;font-size: 13px;&quot;&gt;回溯&lt;/font&gt;" style="ellipse;whiteSpace=wrap;html=1;fillColor=#e1d5e7;strokeColor=#9673a6;" vertex="1" parent="1">
          <mxGeometry x="260" y="140" width="75" height="50" as="geometry" />
        </mxCell>
        <mxCell id="XR2TIhq63pXWGKetBBpU-15" style="rounded=0;orthogonalLoop=1;jettySize=auto;html=1;exitX=0.5;exitY=1;exitDx=0;exitDy=0;entryX=1;entryY=0;entryDx=0;entryDy=0;" edge="1" parent="1" source="XR2TIhq63pXWGKetBBpU-24" target="XR2TIhq63pXWGKetBBpU-19">
          <mxGeometry relative="1" as="geometry">
            <mxPoint x="197.5" y="540" as="sourcePoint" />
          </mxGeometry>
        </mxCell>
        <mxCell id="XR2TIhq63pXWGKetBBpU-16" style="edgeStyle=orthogonalEdgeStyle;rounded=0;orthogonalLoop=1;jettySize=auto;html=1;exitX=0.5;exitY=1;exitDx=0;exitDy=0;entryX=0.5;entryY=0;entryDx=0;entryDy=0;" edge="1" parent="1" source="XR2TIhq63pXWGKetBBpU-24" target="XR2TIhq63pXWGKetBBpU-20">
          <mxGeometry relative="1" as="geometry">
            <mxPoint x="197.5" y="540" as="sourcePoint" />
          </mxGeometry>
        </mxCell>
        <mxCell id="XR2TIhq63pXWGKetBBpU-17" style="rounded=0;orthogonalLoop=1;jettySize=auto;html=1;exitX=0.5;exitY=1;exitDx=0;exitDy=0;entryX=0;entryY=0;entryDx=0;entryDy=0;" edge="1" parent="1" source="XR2TIhq63pXWGKetBBpU-24" target="XR2TIhq63pXWGKetBBpU-21">
          <mxGeometry relative="1" as="geometry">
            <mxPoint x="197.5" y="540" as="sourcePoint" />
          </mxGeometry>
        </mxCell>
        <mxCell id="XR2TIhq63pXWGKetBBpU-19" value="&lt;span style=&quot;font-size: 13px;&quot;&gt;写&lt;/span&gt;&lt;span style=&quot;font-size: 13px; background-color: initial;&quot;&gt;正排&lt;/span&gt;" style="ellipse;whiteSpace=wrap;html=1;fillColor=#fff2cc;strokeColor=#d6b656;" vertex="1" parent="1">
          <mxGeometry x="60" y="585" width="75" height="50" as="geometry" />
        </mxCell>
        <mxCell id="XR2TIhq63pXWGKetBBpU-20" value="&lt;span style=&quot;font-size: 13px;&quot;&gt;写hbase&lt;/span&gt;" style="ellipse;whiteSpace=wrap;html=1;fillColor=#fff2cc;strokeColor=#d6b656;" vertex="1" parent="1">
          <mxGeometry x="160.5" y="585" width="75" height="50" as="geometry" />
        </mxCell>
        <mxCell id="XR2TIhq63pXWGKetBBpU-21" value="&lt;span style=&quot;font-size: 13px;&quot;&gt;写kafka&lt;/span&gt;" style="ellipse;whiteSpace=wrap;html=1;fillColor=#fff2cc;strokeColor=#d6b656;" vertex="1" parent="1">
          <mxGeometry x="260" y="585" width="75" height="50" as="geometry" />
        </mxCell>
        <mxCell id="XR2TIhq63pXWGKetBBpU-24" value="&lt;font style=&quot;font-size: 13px;&quot;&gt;请求&lt;/font&gt;&lt;div&gt;&lt;span style=&quot;font-size: 13px;&quot;&gt;content-scheduler&lt;br&gt;&lt;/span&gt;&lt;div&gt;&lt;font style=&quot;font-size: 13px;&quot;&gt;调度服务&lt;/font&gt;&lt;/div&gt;&lt;/div&gt;" style="ellipse;whiteSpace=wrap;html=1;fillColor=#f8cecc;strokeColor=#b85450;" vertex="1" parent="1">
          <mxGeometry x="138.25" y="340" width="119.5" height="70" as="geometry" />
        </mxCell>
      </root>
    </mxGraphModel>
  </diagram>
</mxfile>
